<svg width="16" height="13" viewBox="0 0 16 13" fill="none" xmlns="http://www.w3.org/2000/svg">
<path d="M15.6258 6.56491C15.6258 6.81355 15.5271 7.052 15.3513 7.22782C15.1754 7.40364 14.937 7.50241 14.6883 7.50241H7.18834C6.9397 7.50241 6.70125 7.40364 6.52543 7.22782C6.34962 7.052 6.25085 6.81355 6.25084 6.56491C6.25084 6.31627 6.34962 6.07781 6.52543 5.90199C6.70125 5.72618 6.9397 5.62741 7.18834 5.62741H14.6883C14.937 5.62741 15.1754 5.72618 15.3513 5.90199C15.5271 6.07781 15.6258 6.31627 15.6258 6.56491ZM7.18834 2.50241H14.6883C14.937 2.50241 15.1754 2.40364 15.3513 2.22782C15.5271 2.052 15.6258 1.81355 15.6258 1.56491C15.6258 1.31627 15.5271 1.07781 15.3513 0.901995C15.1754 0.726179 14.937 0.627407 14.6883 0.627407H7.18834C6.9397 0.627407 6.70125 0.726179 6.52543 0.901995C6.34962 1.07781 6.25085 1.31627 6.25084 1.56491C6.25085 1.81355 6.34962 2.052 6.52543 2.22782C6.70125 2.40364 6.9397 2.50241 7.18834 2.50241ZM14.6883 10.6274H0.938345C0.689704 10.6274 0.451248 10.7262 0.275432 10.902C0.099617 11.0778 0.000844896 11.3163 0.000844896 11.5649C0.000844896 11.8135 0.099617 12.052 0.275432 12.2278C0.451248 12.4036 0.689704 12.5024 0.938345 12.5024H14.6883C14.937 12.5024 15.1754 12.4036 15.3513 12.2278C15.5271 12.052 15.6258 11.8135 15.6258 11.5649C15.6258 11.3163 15.5271 11.0778 15.3513 10.902C15.1754 10.7262 14.937 10.6274 14.6883 10.6274ZM0.275064 7.85319C0.362161 7.94059 0.465654 8.00994 0.579609 8.05725C0.693563 8.10457 0.815738 8.12893 0.939126 8.12893C1.06251 8.12893 1.18469 8.10457 1.29864 8.05725C1.4126 8.00994 1.51609 7.94059 1.60319 7.85319L4.72819 4.72819C4.81559 4.64109 4.88494 4.5376 4.93225 4.42364C4.97957 4.30969 5.00393 4.18751 5.00393 4.06413C5.00393 3.94074 4.97957 3.81856 4.93225 3.70461C4.88494 3.59065 4.81559 3.48716 4.72819 3.40006L1.60319 0.275064C1.51598 0.187858 1.41245 0.118682 1.29851 0.0714868C1.18457 0.0242913 1.06245 0 0.939126 0C0.815798 0 0.693678 0.0242913 0.579738 0.0714868C0.465798 0.118682 0.36227 0.187858 0.275064 0.275064C0.0989433 0.451184 0 0.690055 0 0.939126C0 1.1882 0.0989433 1.42707 0.275064 1.60319L2.73522 4.06491L0.275064 6.52663C0.187898 6.61369 0.118749 6.71709 0.0715701 6.8309C0.0243911 6.94471 0.000107437 7.06671 0.000107437 7.18991C0.000107437 7.31311 0.0243911 7.4351 0.0715701 7.54891C0.118749 7.66273 0.187898 7.76612 0.275064 7.85319Z" fill="currentColor"/>
</svg>
